<svg xmlns="http://www.w3.org/2000/svg" fill="none" viewBox="0 0 18 18">
  <path fill="currentColor" fill-rule="evenodd" d="M9 0c-.06809 0-.12329.0575634-.12329.128571 0 2.221129-.0002 3.875609-.13788 5.113989-.13772 1.23879-.41064 2.03292-.93372 2.55568-.52416.52385-1.32146.79743-2.56303.9353-1.2402.13771-2.89673.13789-5.118792.13789C.0551978 8.87143 0 8.92899 0 9c0 .0355.0137995.06765.0361101.09091.0223107.02327.0531327.03766.0871779.03766 2.222072 0 3.878592.00018 5.118792.1379 1.24157.13786 2.03887.41144 2.56303.93533.52308.5227.796 1.3168.93372 2.5556.13768 1.2384.13788 2.8929.13788 5.114 0 .071.0552.1286.12329.1286s.12329-.0576.12329-.1286c0-2.2211.0002-3.8756.13788-5.114.13772-1.2388.41064-2.0329.93373-2.5556.5241-.52389 1.3215-.79747 2.563-.93533 1.2402-.13772 2.8967-.1379 5.1188-.1379.0681 0 .1233-.05756.1233-.12857 0-.07101-.0552-.12857-.1233-.12857-2.2221 0-3.8786-.00018-5.1188-.13789-1.2416-.13787-2.0389-.41145-2.563-.9353-.52309-.52276-.79601-1.31689-.93373-2.55568-.13768-1.23838-.13788-2.89286-.13788-5.113989C9.12329.0575634 9.06809 0 9 0Zm3.8323 9c-.0338-.00349-.0673-.00708-.1005-.01077-1.255-.13936-2.1221-.42024-2.7075-1.00533-.58652-.58616-.8684-1.45543-1.00807-2.71173-.00564-.05068-.01104-.10204-.01623-.15409-.00519.05205-.0106.10341-.01623.15409-.13967 1.2563-.42155 2.12557-1.00806 2.71173-.58543.58509-1.45251.86597-2.70752 1.00533-.03319.00369-.06668.00728-.10045.01077.03378.00349.06726.00708.10045.01077 1.25501.13936 2.12209.42024 2.70753 1.00533.5865.5862.86838 1.4554 1.00805 2.7117.00563.0507.01104.1021.01623.1541.00519-.052.0106-.1034.01623-.1541.13967-1.2563.42155-2.1255 1.00807-2.7117.5854-.58509 1.4525-.86597 2.7075-1.00533.0332-.00369.0667-.00728.1005-.01077Z" clip-rule="evenodd"/>
  <path fill="currentColor" d="M12.8323 9c-.0338-.00349-.0673-.00708-.1005-.01077-1.255-.13936-2.1221-.42024-2.7075-1.00533-.58652-.58616-.8684-1.45543-1.00807-2.71173-.00564-.05068-.01104-.10204-.01623-.15409-.00519.05205-.0106.10341-.01623.15409-.13967 1.2563-.42155 2.12557-1.00806 2.71173-.58543.58509-1.45251.86597-2.70752 1.00533-.03319.00369-.06668.00728-.10045.01077.03378.00349.06726.00708.10045.01077 1.25501.13936 2.12209.42024 2.70753 1.00533.5865.5862.86838 1.4554 1.00805 2.7117.00563.0507.01104.1021.01623.1541.00519-.052.0106-.1034.01623-.1541.13967-1.2563.42155-2.1255 1.00807-2.7117.5854-.58509 1.4525-.86597 2.7075-1.00533.0332-.00369.0667-.00728.1005-.01077Z"/>
</svg>