<svg  viewBox="0 0 24 24" fill="none" xmlns="http://www.w3.org/2000/svg">
<g clipPath="url(#clip0_223_1198)">
<path d="M24.0298 5.01004C23.1429 5.40379 22.1923 5.66816 21.1929 5.78816C22.2129 5.17691 22.9967 4.20941 23.3642 3.05816C22.4117 3.62254 21.3523 4.03316 20.2292 4.25441C19.3292 3.29441 18.0467 2.69629 16.6273 2.69629C13.9011 2.69629 11.6904 4.90504 11.6904 7.63129C11.6904 8.01754 11.7354 8.39441 11.8198 8.75629C7.7173 8.55004 4.08168 6.58504 1.64605 3.59816C1.22043 4.32941 0.978555 5.17691 0.978555 6.08066C0.978555 7.79254 1.84855 9.30379 3.17418 10.1907C2.36418 10.1644 1.60293 9.94129 0.937305 9.57191C0.937305 9.59254 0.937305 9.61316 0.937305 9.63379C0.937305 12.0263 2.6398 14.0194 4.89543 14.475C4.48293 14.5875 4.04605 14.6475 3.59605 14.6475C3.2773 14.6475 2.96793 14.6175 2.66605 14.5575C3.29605 16.5169 5.11856 17.9475 7.27668 17.9869C5.58918 19.3107 3.46105 20.0982 1.1473 20.0982C0.74793 20.0982 0.356055 20.0757 -0.0283203 20.0288C2.15418 21.4313 4.74918 22.2469 7.5373 22.2469C16.6161 22.2469 21.5811 14.7263 21.5811 8.20504C21.5811 7.99129 21.5754 7.77566 21.5679 7.56566C22.5317 6.87004 23.3679 6.00004 24.0298 5.01004Z" fill="currentColor"/>
</g>
<defs>
<clipPath id="clip0_223_1198">
<rect width="24" height="24" fill="currentColor"/>
</clipPath>
</defs>
</svg>
