<svg  viewBox="0 0 293 345" fill="none" xmlns="http://www.w3.org/2000/svg">
<path d="M196.875 343.672H131.086L129.613 256.772H140.414C143.36 257.099 146.306 259.39 149.252 263.645C152.525 267.573 155.634 272.646 158.58 278.865C161.853 285.084 165.126 291.794 168.399 298.995C171.672 305.868 174.782 312.414 177.727 318.633C181.001 324.524 184.11 329.434 187.056 333.362C190.329 337.289 193.274 339.253 195.893 339.253C201.784 339.253 206.53 337.78 210.131 334.835C213.731 331.889 216.35 326.979 217.986 320.106C219.95 313.232 221.259 304.395 221.914 293.594C222.568 282.466 222.896 269.046 222.896 253.335C222.896 237.952 222.405 225.187 221.423 215.04C220.768 204.567 219.459 196.384 217.495 190.492C215.531 184.274 212.749 180.019 209.149 177.727C205.876 175.109 201.457 173.8 195.893 173.8C182.146 173.8 169.054 173.8 156.616 173.8C144.179 173.8 132.395 173.963 121.267 174.291V204.239C120.94 227.805 117.012 248.426 109.484 266.1C101.956 283.447 92.3004 298.013 80.5174 309.796C68.7344 321.251 55.8058 329.925 41.7316 335.817C27.6574 341.381 13.7469 344.163 0 344.163L0.49096 260.209V166.435H50.0779V0H121.267V166.435H195.402C202.93 166.435 211.276 167.254 220.441 168.89V0H291.63V170.854H229.769C238.279 173.145 246.298 176.746 253.826 181.655C261.682 186.565 268.391 192.784 273.956 200.312C279.52 207.84 283.938 217.004 287.211 227.805C290.485 238.606 292.121 251.371 292.121 266.1C292.121 284.429 289.503 298.995 284.266 309.796C279.356 320.269 272.483 328.125 263.645 333.362C254.808 338.599 244.662 341.872 233.206 343.181C221.75 344.163 209.64 344.327 196.875 343.672ZM50.0779 200.803V180.182C35.3491 182.801 24.2207 186.565 16.6926 191.474C9.16458 196.384 5.40056 202.93 5.40056 211.113V260.209C13.9105 260.209 20.9476 258.572 26.5118 255.299C32.4033 252.026 36.9856 247.771 40.2587 242.534C43.8591 236.97 46.3139 230.751 47.6231 223.878C49.2596 216.677 50.0779 208.985 50.0779 200.803Z" fill="currentColor"/>
</svg>
