<svg xmlns="http://www.w3.org/2000/svg" fill="none" viewBox="0 0 224 109">
  <path fill="currentColor" d="M15.3 62.623h-4.824l-.108-6.372h.792c.216.024.432.192.648.504.24.288.468.66.684 1.116.24.456.48.948.72 1.476.24.504.468.984.684 1.44.24.432.468.792.684 1.08.24.288.456.432.648.432.432 0 .78-.108 1.044-.324.264-.216.456-.576.576-1.08.144-.504.24-1.152.288-1.944.048-.816.072-1.8.072-2.952 0-1.128-.036-2.064-.108-2.808-.048-.768-.144-1.368-.288-1.8-.144-.456-.348-.768-.612-.936-.24-.192-.564-.288-.972-.288h-2.88c-.912 0-1.776.012-2.592.036v2.196c-.024 1.728-.312 3.24-.864 4.536-.552 1.272-1.26 2.34-2.124 3.204-.864.84-1.812 1.476-2.844 1.908-1.032.408-2.052.612-3.06.612L.9 56.503v-6.876h3.636V37.423h5.22v12.204h5.436c.552 0 1.164.06 1.836.18V37.423h5.22v12.528h-4.536c.624.168 1.212.432 1.764.792.576.36 1.068.816 1.476 1.368.408.552.732 1.224.972 2.016s.36 1.728.36 2.808c0 1.344-.192 2.412-.576 3.204-.36.768-.864 1.344-1.512 1.728-.648.384-1.392.624-2.232.72-.84.072-1.728.084-2.664.036ZM4.536 52.147v-1.512c-1.08.192-1.896.468-2.448.828-.552.36-.828.84-.828 1.44v3.6c.624 0 1.14-.12 1.548-.36.432-.24.768-.552 1.008-.936.264-.408.444-.864.54-1.368.12-.528.18-1.092.18-1.692Zm24.6271 7.236h15.192v3.24h-19.584v-25.2h19.476v3.24h-15.048v7.74h15.048v3.24h-15.048l-.036 7.74Zm20.4792-9.216c0 1.32.204 2.532.612 3.636.408 1.104.984 2.052 1.728 2.844.744.768 1.644 1.368 2.7 1.8 1.056.432 2.232.648 3.528.648 1.92 0 3.588-.444 5.004-1.332 1.44-.888 2.388-2.184 2.844-3.888h4.212c-.336 1.392-.876 2.652-1.62 3.78-.72 1.104-1.608 2.052-2.664 2.844-1.032.768-2.208 1.368-3.528 1.8-1.32.408-2.736.612-4.248.612-1.848 0-3.528-.3-5.04-.9-1.488-.624-2.772-1.488-3.852-2.592-1.056-1.128-1.884-2.472-2.484-4.032-.576-1.584-.864-3.324-.864-5.22 0-1.92.288-3.66.864-5.22.6-1.56 1.428-2.892 2.484-3.996 1.08-1.128 2.364-1.992 3.852-2.592 1.512-.624 3.192-.936 5.04-.936 1.728 0 3.276.276 4.644.828 1.368.552 2.52 1.332 3.456 2.34.96 1.008 1.692 2.208 2.196 3.6.528 1.392.792 2.928.792 4.608h-3.708c-.24-5.04-2.7-7.56-7.38-7.56-1.296 0-2.472.216-3.528.648-1.056.432-1.956 1.044-2.7 1.836-.744.768-1.32 1.704-1.728 2.808-.408 1.08-.612 2.292-.612 3.636Zm26.2091-.252 6.948-12.492h4.428l-6.768 12.168h7.128l-6.192 13.032h-4.428l5.148-10.224h-6.228v10.224h-4.464v-25.2h4.428v12.492Zm17.4367 9.468H108.48v3.24H88.8961v-25.2h19.4759v3.24H93.3241v7.74h15.0479v3.24H93.3241l-.036 7.74Zm21.4299 3.24h-4.392v-25.2h7.272c1.128 0 2.208.096 3.24.288 1.032.192 1.944.54 2.736 1.044.792.48 1.416 1.14 1.872 1.98.48.816.72 1.86.72 3.132 0 1.896-.54 3.408-1.62 4.536-1.056 1.104-2.496 1.824-4.32 2.16l5.904 12.06h-4.5l-5.796-11.844h-1.08l-.036 11.844Zm2.88-15.264c.6 0 1.152-.036 1.656-.108.504-.096.936-.264 1.296-.504.384-.24.672-.576.864-1.008.216-.432.324-.984.324-1.656 0-.672-.108-1.224-.324-1.656-.192-.432-.48-.756-.864-.972-.36-.24-.792-.396-1.296-.468-.504-.096-1.056-.144-1.656-.144h-2.844v6.516h2.844Zm22.518 9.072c0-.936-.3-1.692-.9-2.268-.576-.576-1.32-1.092-2.232-1.548-.888-.48-1.848-.924-2.88-1.332-1.032-.432-2.004-.948-2.916-1.548-.888-.624-1.632-1.38-2.232-2.268-.576-.912-.864-2.052-.864-3.42 0-1.128.204-2.124.612-2.988.432-.864 1.008-1.584 1.728-2.16.72-.576 1.572-1.008 2.556-1.296 1.008-.312 2.088-.468 3.24-.468 1.344 0 2.532.204 3.564.612 1.032.384 1.884.936 2.556 1.656.696.696 1.212 1.536 1.548 2.52.36.984.54 2.076.54 3.276h-4.428c0-.528-.048-1.02-.144-1.476-.096-.48-.288-.888-.576-1.224-.288-.36-.684-.648-1.188-.864-.48-.216-1.116-.324-1.908-.324-.456 0-.912.036-1.368.108-.432.072-.816.204-1.152.396-.336.192-.612.456-.828.792-.216.336-.324.756-.324 1.26 0 .864.288 1.596.864 2.196.6.576 1.344 1.104 2.232 1.584.888.48 1.836.96 2.844 1.44 1.032.48 1.992 1.044 2.88 1.692.888.624 1.62 1.392 2.196 2.304.6.888.9 2.004.9 3.348 0 2.04-.72 3.636-2.16 4.788-1.44 1.128-3.516 1.692-6.228 1.692-1.632 0-3.048-.216-4.248-.648-1.176-.456-2.148-1.056-2.916-1.8-.768-.744-1.332-1.596-1.692-2.556-.36-.984-.54-2.016-.54-3.096h4.428c0 .576.132 1.116.396 1.62s.624.948 1.08 1.332c.456.384.984.696 1.584.936.624.216 1.296.324 2.016.324.552 0 1.068-.036 1.548-.108.48-.072.9-.204 1.26-.396.36-.192.636-.456.828-.792.216-.336.324-.768.324-1.296Zm10.582 6.192h-4.392v-25.2h7.272c1.128 0 2.208.096 3.24.288 1.032.192 1.944.54 2.736 1.044.792.48 1.416 1.14 1.872 1.98.48.816.72 1.86.72 3.132 0 1.152-.204 2.16-.612 3.024-.408.864-.996 1.584-1.764 2.16-.744.576-1.644 1.008-2.7 1.296-1.032.288-2.196.432-3.492.432h-2.844l-.036 11.844Zm2.88-15.264c.6 0 1.152-.036 1.656-.108.504-.096.936-.264 1.296-.504.384-.24.672-.576.864-1.008.216-.432.324-.984.324-1.656 0-.672-.108-1.224-.324-1.656-.192-.432-.48-.756-.864-.972-.36-.24-.792-.396-1.296-.468-.504-.096-1.056-.144-1.656-.144h-2.844v6.516h2.844Zm18.113 10.044h-5.868l-.828 5.22h-4.356l3.924-25.2h8.532l3.924 25.2h-4.5l-.828-5.22Zm-.504-3.42-2.412-15.516-2.448 15.516h4.86Zm10.08-3.816c0 1.32.204 2.532.612 3.636.408 1.104.984 2.052 1.728 2.844.744.768 1.644 1.368 2.7 1.8 1.056.432 2.232.648 3.528.648 1.92 0 3.588-.444 5.004-1.332 1.44-.888 2.388-2.184 2.844-3.888h4.212c-.336 1.392-.876 2.652-1.62 3.78-.72 1.104-1.608 2.052-2.664 2.844-1.032.768-2.208 1.368-3.528 1.8-1.32.408-2.736.612-4.248.612-1.848 0-3.528-.3-5.04-.9-1.488-.624-2.772-1.488-3.852-2.592-1.056-1.128-1.884-2.472-2.484-4.032-.576-1.584-.864-3.324-.864-5.22 0-1.92.288-3.66.864-5.22.6-1.56 1.428-2.892 2.484-3.996 1.08-1.128 2.364-1.992 3.852-2.592 1.512-.624 3.192-.936 5.04-.936 1.728 0 3.276.276 4.644.828 1.368.552 2.52 1.332 3.456 2.34.96 1.008 1.692 2.208 2.196 3.6.528 1.392.792 2.928.792 4.608h-3.708c-.24-5.04-2.7-7.56-7.38-7.56-1.296 0-2.472.216-3.528.648-1.056.432-1.956 1.044-2.7 1.836-.744.768-1.32 1.704-1.728 2.808-.408 1.08-.612 2.292-.612 3.636Zm26.173 9.216h15.192v3.24h-19.584v-25.2h19.476v3.24h-15.048v7.74h15.048v3.24h-15.048l-.036 7.74Z"/>
  <path fill="currentColor" fill-rule="evenodd" d="M37.7206 69.623c-3.5569 8.6497-3.9031 16.6461-.5636 23.1161 5.0498 9.7839 17.8263 14.7189 34.9175 14.3969 17.0196-.321 37.9755-5.87 58.7995-16.6186 11.915-6.1498 22.467-13.3205 31.211-20.8944h1.52c-8.978 7.9119-19.903 15.3985-32.272 21.783-41.8612 21.607-84.4231 22.409-95.0646 1.7918-3.4666-6.7161-3.1182-14.8766.3744-23.5748h1.0778Zm151.8934-38c1.275-6.0915.778-11.7658-1.753-16.67-10.642-20.61715-53.203-19.81493-95.0646 1.7918-8.7036 4.4923-16.6916 9.5304-23.7897 14.8782h1.6716c6.7788-5.0141 14.3533-9.7451 22.5767-13.9896 20.824-10.74855 41.78-16.29785 58.8-16.61864 17.091-.322138 29.868 4.61329 34.917 14.39684 2.43 4.7078 2.909 10.2237 1.619 16.2114h1.023Z" clip-rule="evenodd"/>
  <path fill="currentColor" fill-rule="evenodd" d="M146 70.623c-.091 0-.164.0768-.164.1715 0 2.9615-.001 5.1675-.184 6.8186-.184 1.6518-.548 2.7106-1.245 3.4076-.699.6985-1.762 1.0632-3.418 1.2471-1.653.1836-3.862.1838-6.825.1838-.09 0-.164.0768-.164.1714 0 .0474.018.0902.048.1213.03.031.071.0502.116.0502 2.963 0 5.172.0002 6.825.1838 1.656.1839 2.719.5486 3.418 1.2471.697.697 1.061 1.7558 1.245 3.4076.183 1.6511.184 3.8571.184 6.8186 0 .0947.073.1714.164.1714.091 0 .164-.0767.164-.1714 0-2.9615.001-5.1675.184-6.8186.184-1.6518.548-2.7106 1.245-3.4076.699-.6985 1.762-1.0632 3.418-1.2471 1.653-.1836 3.862-.1838 6.825-.1838.09 0 .164-.0768.164-.1715 0-.0946-.074-.1714-.164-.1714-2.963 0-5.172-.0002-6.825-.1838-1.656-.1839-2.719-.5486-3.418-1.2471-.697-.697-1.061-1.7558-1.245-3.4076-.183-1.6511-.184-3.8571-.184-6.8186 0-.0947-.073-.1715-.164-.1715Zm5.11 12c-.045-.0046-.09-.0094-.134-.0143-1.674-.1858-2.83-.5603-3.61-1.3405-.782-.7815-1.158-1.9405-1.344-3.6156-.008-.0676-.015-.136-.022-.2054-.007.0694-.014.1378-.022.2054-.186 1.6751-.562 2.8341-1.344 3.6156-.78.7802-1.936 1.1547-3.61 1.3405-.044.0049-.089.0097-.134.0143.045.0047.09.0095.134.0144 1.674.1858 2.83.5603 3.61 1.3404.782.7816 1.158 1.9406 1.344 3.6157.008.0676.015.136.022.2054.007-.0694.014-.1378.022-.2054.186-1.6751.562-2.8341 1.344-3.6157.78-.7801 1.936-1.1546 3.61-1.3404.044-.0049.089-.0097.134-.0144Z" clip-rule="evenodd"/>
  <path fill="currentColor" d="M151.11 82.623c-.045-.0046-.09-.0094-.134-.0143-1.674-.1858-2.83-.5603-3.61-1.3405-.782-.7815-1.158-1.9405-1.344-3.6156-.008-.0676-.015-.136-.022-.2054-.007.0694-.014.1378-.022.2054-.186 1.6751-.562 2.8341-1.344 3.6156-.78.7802-1.936 1.1547-3.61 1.3405-.044.0049-.089.0097-.134.0143.045.0047.09.0095.134.0144 1.674.1858 2.83.5603 3.61 1.3404.782.7816 1.158 1.9406 1.344 3.6157.008.0676.015.136.022.2054.007-.0694.014-.1378.022-.2054.186-1.6751.562-2.8341 1.344-3.6157.78-.7801 1.936-1.1546 3.61-1.3404.044-.0049.089-.0097.134-.0144Z"/>
</svg>